HIERARCHY
ROOT Hips
{
	OFFSET 0.000000 0.000000 0.000000
	CHANNELS 6 Xposition Yposition Zposition Zrotation Yrotation Xrotation 
	JOINT LHipJoint
	{
		OFFSET 0.000000 0.000000 0.000000
		CHANNELS 3 Zrotation Yrotation Xrotation
		JOINT LeftUpLeg
		{
			OFFSET 1.363060 -1.794630 0.839290
			CHANNELS 3 Zrotation Yrotation Xrotation
			JOINT LeftLeg
			{
				OFFSET 2.448110 -6.726130 0.000000
				CHANNELS 3 Zrotation Yrotation Xrotation
				JOINT LeftFoot
				{
					OFFSET 2.562200 -7.039590 0.000000
					CHANNELS 3 Zrotation Yrotation Xrotation
					JOINT LeftToeBase
					{
						OFFSET 0.157640 -0.433110 2.322550
						CHANNELS 3 Zrotation Yrotation Xrotation
						End Site
						{
							OFFSET 0.000000 0.000000 0.000000
						}
					}
				}
			}
		}
	}
	JOINT RHipJoint
	{
		OFFSET 0.000000 0.000000 0.000000
		CHANNELS 3 Zrotation Yrotation Xrotation
		JOINT RightUpLeg
		{
			OFFSET -1.305520 -1.794630 0.839290
			CHANNELS 3 Zrotation Yrotation Xrotation
			JOINT RightLeg
			{
				OFFSET -2.542530 -6.985550 0.000000
				CHANNELS 3 Zrotation Yrotation Xrotation
				JOINT RightFoot
				{
					OFFSET -2.568260 -7.056230 0.000000
					CHANNELS 3 Zrotation Yrotation Xrotation
					JOINT RightToeBase
					{
						OFFSET -0.164730 -0.452590 2.363150
						CHANNELS 3 Zrotation Yrotation Xrotation
						End Site
						{
							OFFSET 0.000000 0.000000 0.000000
						}
					}
				}
			}
		}
	}
	JOINT LowerBack
	{
		OFFSET 0.000000 0.000000 0.000000
		CHANNELS 3 Zrotation Yrotation Xrotation
		JOINT Spine
		{
			OFFSET 0.028270 2.035590 -0.193380
			CHANNELS 3 Zrotation Yrotation Xrotation
			JOINT Spine1
			{
				OFFSET 0.056720 2.048850 -0.042750
				CHANNELS 3 Zrotation Yrotation Xrotation
				JOINT Neck
				{
					OFFSET 0.000000 0.000000 0.000000
					CHANNELS 3 Zrotation Yrotation Xrotation
					JOINT Neck1
					{
						OFFSET -0.054170 1.746240 0.172020
						CHANNELS 3 Zrotation Yrotation Xrotation
						JOINT Head
						{
							OFFSET 0.104070 1.761360 -0.123970
							CHANNELS 3 Zrotation Yrotation Xrotation
							End Site
							{
								OFFSET 0.000000 0.000000 0.000000
							}
						}
					}
				}
				JOINT LeftShoulder
				{
					OFFSET 0.000000 0.000000 0.000000
					CHANNELS 3 Zrotation Yrotation Xrotation
					JOINT LeftArm
					{
						OFFSET 3.362410 1.200890 -0.311210
						CHANNELS 3 Zrotation Yrotation Xrotation
						JOINT LeftForeArm
						{
							OFFSET 4.983000 -0.000000 -0.000000
							CHANNELS 3 Zrotation Yrotation Xrotation
							JOINT LeftHand
							{
								OFFSET 3.483560 -0.000000 -0.000000
								CHANNELS 3 Zrotation Yrotation Xrotation
								JOINT LeftFingerBase
								{
									OFFSET 0.000000 0.000000 0.000000
									CHANNELS 3 Zrotation Yrotation Xrotation
									JOINT LeftHandIndex1
									{
										OFFSET 0.715260 -0.000000 -0.000000
										CHANNELS 3 Zrotation Yrotation Xrotation
										End Site
										{
											OFFSET 0.000000 0.000000 0.000000
										}
									}
								}
								JOINT LThumb
								{
									OFFSET 0.000000 0.000000 0.000000
									CHANNELS 3 Zrotation Yrotation Xrotation
									End Site
									{
										OFFSET 0.000000 0.000000 0.000000
									}
								}
							}
						}
					}
				}
				JOINT RightShoulder
				{
					OFFSET 0.000000 0.000000 0.000000
					CHANNELS 3 Zrotation Yrotation Xrotation
					JOINT RightArm
					{
						OFFSET -3.136600 1.374050 -0.404650
						CHANNELS 3 Zrotation Yrotation Xrotation
						JOINT RightForeArm
						{
							OFFSET -5.241900 -0.000000 -0.000000
							CHANNELS 3 Zrotation Yrotation Xrotation
							JOINT RightHand
							{
								OFFSET -3.444170 -0.000000 -0.000000
								CHANNELS 3 Zrotation Yrotation Xrotation
								JOINT RightFingerBase
								{
									OFFSET 0.000000 0.000000 0.000000
									CHANNELS 3 Zrotation Yrotation Xrotation
									JOINT RightHandIndex1
									{
										OFFSET -0.622530 -0.000000 -0.000000
										CHANNELS 3 Zrotation Yrotation Xrotation
										End Site
										{
											OFFSET 0.000000 0.000000 0.000000
										}
									}
								}
								JOINT RThumb
								{
									OFFSET 0.000000 0.000000 0.000000
									CHANNELS 3 Zrotation Yrotation Xrotation
									End Site
									{
										OFFSET 0.000000 0.000000 0.000000
									}
								}
							}
						}
					}
				}
			}
		}
	}
}
MOTION
Frames: 11
Frame Time: 0.008333
24.666521 17.685728 -2.553447 3.645422 -68.529077 4.523107 6.522926 2.522937 -0.340629 -16.856259 -20.534163 -14.909724 1.596063 10.643993 30.365123 2.479471 -2.212110 6.475178 2.723700 -10.233700 -29.736800 -11.956852 -4.314791 -3.246370 32.688128 -0.172012 -11.278647 -1.154218 -8.484322 25.746734 2.258360 -17.778157 -24.713763 -0.817800 -5.770500 16.119800 8.785652 4.593215 5.284025 -0.811836 6.322921 -3.508150 -7.811832 2.455694 -5.829597 0.133914 18.464362 -8.986222 1.502154 24.606375 8.336075 0.761200 12.239800 3.323000 3.291278 -11.262284 2.339798 -97.624279 5.742833 -8.991863 22.246978 -32.893151 -8.175082 0.682890 4.752025 14.113000 18.868261 44.203418 12.589700 -7.125000 0.000000 0.000000 -22.732800 69.394000 -13.523600 -4.166239 10.880256 2.670329 85.872165 6.051489 19.748376 -5.416207 22.326102 -3.357887 -3.888181 1.169969 -16.940935 -19.601817 38.954852 -9.995200 7.125000 0.000000 0.000000 9.502100 8.216900 10.903300 
24.685580 17.674337 -2.447199 2.583524 -68.905984 5.309967 6.469837 2.532773 -0.354835 -16.926480 -20.130057 -14.610293 1.640521 10.694814 30.554513 2.263992 -1.604736 5.578848 2.876000 -10.491600 -30.583900 -11.965906 -4.326189 -3.268832 32.730194 -0.291273 -10.963677 -1.135699 -8.426647 25.627163 2.177467 -17.577277 -25.011645 -0.735200 -5.477700 15.276300 8.609025 4.886355 5.144870 -0.726915 6.680577 -3.524237 -7.467927 2.651936 -5.915494 0.342549 18.018141 -8.805504 1.711747 23.963081 8.381310 0.771100 11.933200 3.324400 3.412398 -11.258486 2.361659 -97.698403 5.846876 -8.230634 21.993142 -32.694797 -7.972292 0.824188 4.659713 14.430211 20.125056 41.523955 12.603800 -7.125000 0.000000 0.000000 -18.046200 67.358800 -9.837600 -4.385732 10.874227 2.507600 86.875510 6.992264 1.322671 -3.041805 18.375585 -3.010854 -1.937457 3.658876 7.481751 -10.190934 45.529058 -5.184100 7.125000 0.000000 0.000000 14.435300 11.660200 17.559800 
24.700258 17.664807 -2.338323 2.043038 -69.393395 5.758269 6.426808 2.549268 -0.369416 -17.232255 -19.720033 -14.327803 1.648730 10.696003 30.578289 2.075435 -1.089757 4.773226 2.866000 -10.474800 -30.528500 -12.007772 -4.343515 -3.292716 32.591555 -0.228682 -10.817738 -1.159712 -8.423046 25.643997 2.268648 -17.629957 -24.213629 -0.584900 -4.897100 13.615200 7.968164 5.227117 4.707812 -0.605466 7.031248 -3.522349 -6.568217 2.923666 -5.789549 0.185019 17.533819 -9.071893 2.057000 23.311000 8.734458 0.922100 11.610600 3.475000 3.478197 -11.302073 2.335676 -98.035485 5.973155 -7.284634 21.928456 -32.767312 -7.867495 0.928267 4.592222 14.460056 21.017928 39.288086 12.436700 -7.125000 0.000000 0.000000 -14.883100 65.511900 -7.449700 -4.298801 10.979994 2.583036 87.514506 5.568442 -0.710470 -5.109024 20.160306 -3.181319 -1.787307 3.439699 8.502281 -8.890682 44.533116 -4.323200 7.125000 0.000000 0.000000 14.913600 10.698900 17.982900 
24.715373 17.659002 -2.223860 1.477262 -69.929508 6.232485 6.385653 2.559923 -0.385508 -17.568442 -19.283485 -14.021436 1.656404 10.688381 30.596461 1.920176 -0.675611 4.043603 2.796500 -10.358100 -30.144400 -12.040522 -4.349769 -3.298477 32.423366 0.010443 -10.589737 -1.168932 -8.395642 25.594431 2.281560 -17.535807 -23.806748 -0.607000 -4.986900 13.871300 7.296508 5.768554 4.332051 -0.554409 7.667616 -3.546260 -5.860331 3.324690 -5.716846 0.213342 16.855096 -9.564753 2.540017 22.397289 9.277194 1.135100 11.165800 3.766100 3.476952 -11.382083 2.302733 -97.984371 6.300230 -5.573690 21.909674 -32.887736 -7.753176 1.057480 4.449751 14.355869 22.311008 36.260423 12.162000 -7.125000 0.000000 0.000000 -11.210800 62.968000 -4.923000 -4.120598 11.181666 2.728955 88.584797 2.670649 -0.974158 -8.672813 23.693166 -3.641698 -1.811832 2.936484 6.983275 -7.326514 42.881273 -3.288500 7.125000 0.000000 0.000000 15.497800 9.277800 18.425300 
24.735856 17.657578 -2.108193 0.713738 -70.391137 6.921444 6.347412 2.560334 -0.401367 -17.789787 -18.900777 -13.744254 1.650728 10.653273 30.537678 1.827297 -0.432184 3.446698 2.724700 -10.235400 -29.742500 -12.077020 -4.349046 -3.279005 32.329323 0.491420 -10.300330 -1.160486 -8.360919 25.509243 2.289307 -17.517162 -23.662770 -0.699300 -5.345500 14.896700 6.792505 6.351570 3.971833 -0.576272 8.386879 -3.592313 -5.523779 3.724542 -5.681881 0.414387 15.744208 -9.966871 3.149596 20.871625 9.581474 1.335100 10.440000 3.919600 3.406567 -11.433210 2.277033 -97.454828 6.702506 -3.394130 21.838543 -32.921575 -7.613144 1.188714 4.261622 14.076896 23.730866 33.018812 11.749700 -7.125000 0.000000 0.000000 -7.927800 60.165400 -2.944000 -3.936372 11.352857 2.844401 90.164018 0.172823 -2.046263 -12.823566 27.540948 -4.294781 -1.766835 2.365374 5.892948 -5.623464 40.286037 -2.197500 7.125000 0.000000 0.000000 16.111500 7.036000 18.674900 
24.761377 17.660207 -1.997016 0.296837 -70.738084 7.311423 6.321126 2.560479 -0.425623 -18.057041 -18.619920 -13.512971 1.632576 10.606946 30.427947 1.800215 -0.367722 3.062111 2.657100 -10.118100 -29.360100 -12.099884 -4.318799 -3.277624 32.127514 1.093347 -9.963050 -1.120436 -8.303726 25.351759 2.317598 -17.795579 -24.094542 -0.692400 -5.319400 14.821800 5.885313 6.958276 3.455411 -0.569113 9.107961 -3.581648 -4.836274 4.165318 -5.539580 0.231731 14.667373 -9.808520 3.663402 19.385573 9.307785 1.438000 9.732600 3.640800 3.300242 -11.424701 2.310305 -96.887619 6.853191 -0.890626 21.367465 -33.053772 -7.944746 1.956109 4.310908 13.696650 33.000217 37.684475 18.751800 -7.125000 0.000000 0.000000 0.392600 66.966900 0.207700 -3.782151 11.386282 2.894936 91.231148 -0.793720 -4.432989 -15.784397 29.886638 -4.816882 -1.615936 1.990400 5.912513 -4.081926 37.874803 -1.306200 7.125000 0.000000 0.000000 16.694700 4.873400 18.841000 
24.784379 17.665464 -1.885620 0.158919 -71.019955 7.259973 6.311772 2.569266 -0.429003 -18.444036 -18.215130 -13.188221 1.616898 10.529206 30.295327 1.908896 -0.679966 3.043768 2.620200 -10.053300 -29.149600 -12.100117 -4.295546 -3.268956 31.821476 1.625041 -9.502665 -1.085132 -8.248694 25.231106 2.412470 -18.312903 -24.466453 -0.623900 -5.054600 14.064300 5.856507 6.773459 3.372697 -0.613406 8.872699 -3.590301 -5.104318 4.029723 -5.445746 -0.265893 13.821216 -10.243716 4.492445 18.273362 9.302653 1.875400 9.197500 3.515800 3.228205 -11.455848 2.331076 -96.459518 6.997501 0.551022 21.337336 -33.175755 -8.059400 2.185290 4.254137 14.204456 35.905445 39.145076 21.342200 -7.125000 0.000000 0.000000 3.628000 69.315300 2.113600 -3.899970 11.376674 2.841080 91.939546 -0.998070 -5.329557 -15.599515 29.746730 -4.747839 -1.557503 2.048800 6.674244 -4.041210 37.954822 -1.299200 7.125000 0.000000 0.000000 16.703300 4.908000 18.860900 
24.803986 17.673351 -1.770282 0.675208 -71.466156 6.615271 6.308751 2.600797 -0.436416 -19.049136 -17.418677 -13.010654 1.597294 10.436638 30.132237 2.235862 -1.600161 3.356886 2.562600 -9.950900 -28.817700 -12.096151 -4.253787 -3.285306 31.255168 2.149182 -9.145690 -1.088256 -8.230766 25.232556 2.529909 -18.777069 -24.437155 -0.553200 -4.764700 13.238800 5.263790 6.691314 3.150375 -0.592955 8.733489 -3.578053 -4.770029 4.002945 -5.356198 -0.781818 12.712538 -10.444007 4.826791 16.821675 9.157146 2.083000 8.476100 3.397900 3.211278 -11.480066 2.342988 -96.369089 7.066113 1.599216 21.449764 -33.382178 -8.115308 2.190209 4.258515 13.953459 36.303602 39.265119 21.670600 -7.125000 0.000000 0.000000 4.156800 69.553500 2.444300 -3.956040 11.376267 2.811947 92.224805 -1.184144 -6.437659 -15.360619 29.429655 -4.666376 -1.492233 2.115900 7.429811 -3.897917 38.063471 -1.234700 7.125000 0.000000 0.000000 16.763700 4.947800 18.946000 
24.828850 17.679813 -1.655490 1.796439 -72.028841 5.522089 6.310943 2.642892 -0.457865 -19.798781 -16.270225 -13.102095 1.566637 10.339181 29.925446 2.633945 -2.748405 3.828556 2.470800 -9.784600 -28.282100 -12.078805 -4.189884 -3.287107 30.463525 2.822064 -9.029685 -1.119804 -8.266187 25.368710 2.594912 -19.083688 -24.506939 -0.504800 -4.554500 12.642300 4.254022 6.645006 2.781056 -0.529966 8.616733 -3.557098 -3.985895 4.031014 -5.262120 -1.585028 11.445718 -10.503396 5.130505 15.175347 8.847406 2.305600 7.649200 3.178200 3.211415 -11.510069 2.350980 -96.587154 7.067078 2.629353 21.620838 -33.683785 -8.191488 2.201758 4.280480 13.696675 36.603318 39.344013 21.898200 -7.125000 0.000000 0.000000 4.565100 69.697800 2.699500 -3.974164 11.364505 2.799881 92.126312 -1.335110 -7.429972 -15.106398 29.021722 -4.578308 -1.436232 2.165580 7.976026 -3.688292 38.053922 -1.127300 7.125000 0.000000 0.000000 16.854700 4.877200 19.039100 
24.855138 17.681456 -1.542452 3.028790 -72.478695 4.285944 6.317197 2.686788 -0.485895 -20.575580 -15.064898 -13.200360 1.533183 10.235938 29.701404 2.994584 -3.831738 4.313833 2.365100 -9.588300 -27.653700 -12.040844 -4.112617 -3.276738 29.636343 3.573325 -8.928077 -1.176267 -8.358348 25.676930 2.582171 -19.211237 -24.908448 -0.536500 -4.693300 13.035800 3.169066 6.557660 2.466748 -0.451750 8.454402 -3.533119 -3.088743 4.045104 -5.180716 -2.612885 10.098944 -10.670644 5.566146 13.440823 8.645599 2.666600 6.774400 3.034900 3.210122 -11.549928 2.349075 -96.886992 6.965234 3.477036 21.826996 -33.999205 -8.268236 2.174316 4.321486 13.488985 36.369148 39.487100 21.799100 -7.125000 0.000000 0.000000 4.172900 69.747000 2.471900 -3.978065 11.346122 2.796117 91.884693 -1.542555 -8.158569 -14.911390 28.674781 -4.515490 -1.418681 2.183621 8.175044 -3.674651 37.988236 -1.122200 7.125000 0.000000 0.000000 16.854400 4.799400 19.017400 
24.880440 17.680689 -1.426784 4.699073 -72.728944 2.541537 6.340534 2.742950 -0.502609 -21.552921 -14.004121 -13.168046 1.506209 10.139918 29.507863 3.330291 -4.884842 4.687574 2.237700 -9.344600 -26.879500 -11.964400 -4.028633 -3.291890 28.629143 4.093646 -8.793833 -1.257915 -8.471550 26.087164 2.545260 -19.263491 -25.337374 -0.581000 -4.880700 13.568600 2.007741 6.367993 2.211995 -0.380895 8.171658 -3.496340 -2.203624 3.997869 -5.065676 -3.747143 8.669564 -10.896874 5.920581 11.617991 8.366709 3.041600 5.851700 2.913000 3.200038 -11.592127 2.351032 -97.190705 6.847530 4.248387 22.105579 -34.357127 -8.356925 2.113553 4.362232 13.308908 35.731787 39.472561 21.357400 -7.125000 0.000000 0.000000 3.280600 69.521100 1.926200 -3.979088 11.319867 2.798987 91.671393 -1.748405 -8.661367 -14.795480 28.436331 -4.478475 -1.417993 2.186309 8.048107 -3.611048 37.945181 -1.086300 7.125000 0.000000 0.000000 16.883100 4.744600 19.037800 
